
<svg version="1.1" id="Layer_1" xmlns="http://www.w3.org/2000/svg" xmlns:xlink="http://www.w3.org/1999/xlink" 
	 viewBox="0 0 511.991 511.991" xml:space="preserve">
<g>
	<g>
		<g>
			<path d="M254.395,429.453c0.046,0.001,0.092,0.008,0.139,0.008c0.028,0,0.055-0.004,0.083-0.004c0.11,0,0.22,0.004,0.33,0.004
				c14.56,0,28.703-1.813,42.225-5.207c0.38-0.066,0.752-0.155,1.112-0.273C373.03,404.685,428.409,336.688,428.409,256
				c0-95.647-77.814-173.462-173.462-173.462c-95.646,0-173.46,77.814-173.46,173.462
				C81.487,351.46,159.001,429.154,254.395,429.453z M163.967,384.242c-9.186-6.535-17.641-14.033-25.219-22.343
				c0.094-0.493,0.148-1,0.148-1.521v-45.228c7.225,6.976,15.701,12.664,25.072,16.658V384.242z M205.207,405.227
				c-8.72-2.914-17.104-6.568-25.073-10.894v-57.537c5.226,1.038,10.623,1.594,16.149,1.594c3.016,0,5.991-0.172,8.924-0.489
				V405.227z M246.45,413.061c-8.556-0.458-16.93-1.609-25.074-3.387v-75.187c9.15-2.921,17.609-7.397,25.074-13.112V413.061z
				 M328.932,394.77c-7.974,4.268-16.357,7.868-25.074,10.726v-64.045c4.003,2.489,8.34,4.502,12.942,5.984
				c3.956,1.274,8.018,2.111,12.132,2.522V394.77z M345.101,384.816v-35.482c9.158-1.645,17.762-5.434,25.072-10.917v21.962
				c0,0.773,0.115,1.518,0.318,2.226C362.852,370.878,354.341,378.33,345.101,384.816z M409.056,250.193
				c0.144-0.558,0.285-1.124,0.466-1.685c0.944-2.932,1.559-5.916,1.867-8.91c0.562,5.392,0.853,10.862,0.853,16.4
				c-0.001,31.874-9.539,61.557-25.9,86.364v-22.778c0.169-0.319,0.343-0.635,0.505-0.957c0.045-0.089,0.089-0.18,0.132-0.272
				c1.064-2.183,1.628-4.295,2.128-6.17c0.192-0.718,0.382-1.441,0.611-2.159c0.232-0.719,0.5-1.419,0.764-2.117
				c0.646-1.703,1.369-3.613,1.793-5.823l15.058-46.785C408.217,253.45,408.677,251.664,409.056,250.193z M386.341,169.636
				c9.263,14.046,16.34,29.655,20.733,46.344c-0.084-0.169-0.16-0.341-0.246-0.51c-4.493-8.758-11.666-15.571-20.488-19.595V169.636
				z M345.101,127.18c9.121,6.404,17.531,13.75,25.093,21.895c-0.008,0.146-0.022,0.291-0.022,0.439v42.451
				c-0.626-0.028-1.254-0.045-1.881-0.045c-8.341,0-16.34,2.382-23.191,6.736V127.18z M303.859,106.501
				c8.716,2.859,17.099,6.458,25.074,10.726v98.986c0,0.306,0.02,0.607,0.053,0.903c-0.73,1.587-1.392,3.208-1.924,4.862
				c-0.032,0.104-0.065,0.207-0.096,0.31c-4.99,10.112-13.28,15.51-16.868,17.472c-2.161,1.007-4.237,2.156-6.239,3.408V106.501z
				 M294.789,279.477c3.572-11.099,11.705-20.262,22.315-25.139c0.153-0.07,0.304-0.146,0.453-0.225
				c4.942-2.659,17.202-10.462,24.303-25.479c0.169-0.359,0.313-0.731,0.428-1.111c0.052-0.171,0.1-0.342,0.148-0.514l0.023-0.088
				c0.428-1.329,0.966-2.646,1.601-3.913c0.065-0.129,0.125-0.26,0.183-0.392c0.331-0.758,1.796-2.945,3.095-4.623
				c5.11-6.201,12.937-9.902,20.954-9.902c2.811-0.001,5.609,0.441,8.319,1.314c6.901,2.222,12.524,6.996,15.833,13.447
				c3.309,6.45,3.908,13.805,1.687,20.703c-0.303,0.942-0.531,1.828-0.733,2.611c-0.222,0.861-0.473,1.837-0.68,2.218
				c-0.236,0.438-0.431,0.896-0.584,1.369l-15.419,47.907c-0.127,0.397-0.224,0.803-0.29,1.216
				c-0.136,0.862-0.586,2.051-1.064,3.311c-0.328,0.867-0.698,1.848-1.035,2.891c-0.334,1.042-0.604,2.051-0.842,2.943
				c-0.347,1.303-0.676,2.533-1.067,3.309c-0.034,0.068-0.067,0.135-0.1,0.204c-0.069,0.134-0.15,0.26-0.219,0.392
				c-0.628,0.739-1.12,1.594-1.452,2.527c-7.511,12.029-21.212,19.64-35.876,19.64c-4.419,0-8.798-0.689-13.013-2.046
				c-10.623-3.419-19.278-10.77-24.371-20.699C292.291,301.417,291.369,290.099,294.789,279.477z M262.619,203.859V98.895
				c8.553,0.413,16.927,1.517,25.073,3.249V257.11c-0.002,0.35,0.028,0.693,0.071,1.033c-3.611,4.941-6.461,10.458-8.367,16.379
				c-4.742,14.734-3.463,30.431,3.602,44.204c1.402,2.734,3.006,5.319,4.781,7.755c-0.053,0.372-0.088,0.748-0.088,1.135v82.238
				c-8.146,1.731-16.52,2.836-25.073,3.249V305.567c0-0.172-0.015-0.342-0.026-0.512c10.291-13.786,16.39-30.875,16.39-49.362
				c0-18.643-6.208-35.862-16.656-49.708C262.512,205.307,262.619,204.596,262.619,203.859z M221.376,102.323
				c8.143-1.777,16.518-2.929,25.074-3.387v91.072c-7.465-5.715-15.923-10.19-25.074-13.112V102.323z M180.136,117.664
				c7.969-4.327,16.353-7.98,25.073-10.893v66.713h-0.001c-2.933-0.317-5.908-0.489-8.924-0.489c-5.526,0-10.923,0.555-16.148,1.594
				V117.664z M163.966,127.755v51.821c-9.371,3.994-17.847,9.682-25.072,16.658V151.72c0-0.55-0.056-1.088-0.161-1.607
				C146.317,141.797,154.776,134.294,163.966,127.755z M122.728,294.852v46.256C106.871,316.558,97.656,287.335,97.656,256
				c-0.001-31.338,9.214-60.559,25.071-85.109v46.203c0,0.271,0.014,0.538,0.041,0.802c-5.853,11.338-9.18,24.183-9.18,37.796
				c0,13.664,3.351,26.554,9.245,37.921C122.77,294.017,122.728,294.429,122.728,294.852z M196.284,189.163
				c36.685,0,66.531,29.845,66.531,66.529c0,36.684-29.845,66.53-66.531,66.53c-36.684,0-66.529-29.846-66.529-66.53
				C129.755,219.008,159.6,189.163,196.284,189.163z"/>
			<path d="M488.437,198.784h-31.952c-0.066-0.233-0.125-0.467-0.192-0.698c-0.122-0.426-0.25-0.847-0.376-1.271l-0.168-0.562
				c-0.342-1.148-0.687-2.296-1.048-3.436c-0.163-0.518-0.333-1.037-0.503-1.553l-0.148-0.451c-0.351-1.076-0.709-2.15-1.077-3.212
				c-0.239-0.693-0.482-1.381-0.725-2.061c-0.374-1.046-0.755-2.087-1.147-3.135c-0.254-0.677-0.512-1.355-0.771-2.023
				c-0.406-1.051-0.824-2.093-1.244-3.128l-0.085-0.211c-0.234-0.577-0.469-1.154-0.709-1.733c-0.455-1.09-0.925-2.173-1.4-3.257
				l-0.247-0.568c-0.171-0.393-0.342-0.787-0.515-1.171c-0.566-1.259-1.148-2.51-1.742-3.766l-0.201-0.431
				c-0.111-0.239-0.221-0.477-0.337-0.719c-0.788-1.639-1.595-3.268-2.423-4.88l-0.41-0.776c-0.695-1.342-1.399-2.675-2.12-3.996
				c-0.193-0.351-0.388-0.7-0.585-1.049l-0.293-0.524c-0.584-1.048-1.172-2.094-1.78-3.144c-0.28-0.481-0.564-0.959-0.848-1.436
				l-0.191-0.32c-0.57-0.963-1.144-1.921-1.726-2.866c-0.359-0.583-0.723-1.163-1.144-1.831c-0.579-0.919-1.164-1.836-1.759-2.749
				c-0.394-0.607-0.792-1.212-1.189-1.804c-0.607-0.911-1.222-1.816-1.838-2.71c-0.401-0.584-0.803-1.167-1.211-1.746
				c-0.652-0.927-1.318-1.846-1.987-2.765l-0.331-0.455c-0.277-0.382-0.553-0.761-0.831-1.137c-0.753-1.015-1.523-2.019-2.3-3.029
				l-0.355-0.464c-0.197-0.258-0.392-0.516-0.597-0.777c-2.196-2.803-4.499-5.592-6.839-8.285c-0.238-0.276-0.481-0.548-0.724-0.819
				l-0.342-0.384c-0.829-0.94-1.663-1.877-2.514-2.808c-0.327-0.356-0.654-0.707-0.984-1.059l-0.345-0.369
				c-0.778-0.834-1.56-1.667-2.349-2.486c-0.437-0.454-0.878-0.904-1.322-1.355l-0.126-0.128c-0.774-0.787-1.552-1.57-2.339-2.348
				c-0.503-0.497-1.01-0.991-1.508-1.471c-0.792-0.769-1.593-1.527-2.41-2.295l-0.221-0.207c-0.431-0.403-0.863-0.806-1.287-1.195
				c-0.84-0.772-1.687-1.533-2.551-2.302l-0.452-0.402c-0.33-0.293-0.659-0.586-0.996-0.882c-0.939-0.819-1.888-1.624-2.85-2.434
				l-0.36-0.308c-0.21-0.182-0.421-0.363-0.636-0.541c-0.069-0.058-0.148-0.119-0.227-0.181
				c-8.732-7.24-18.124-13.815-27.921-19.553c-0.111-0.073-0.226-0.144-0.342-0.212c-0.128-0.074-0.259-0.149-0.422-0.237
				c-1.818-1.055-3.608-2.06-5.307-2.98l-0.732-0.386c-1.554-0.835-3.123-1.649-4.707-2.449c-0.53-0.266-1.063-0.529-1.583-0.786
				c-1.398-0.692-2.805-1.365-4.235-2.033l-1.404-0.654c-1.99-0.909-3.833-1.72-5.632-2.478l-0.599-0.246
				c-1.639-0.686-3.361-1.376-5.111-2.054c-0.471-0.182-0.943-0.36-1.415-0.539l-0.234-0.088c-1.466-0.554-2.94-1.09-4.439-1.618
				l-1.506-0.53c-2.113-0.724-4.044-1.357-5.894-1.931l-0.479-0.142c-1.738-0.535-3.533-1.058-5.479-1.599
				c-0.462-0.129-0.926-0.253-1.391-0.378l-0.344-0.093c-1.52-0.407-3.046-0.799-4.57-1.17l-0.46-0.113
				c-0.391-0.097-0.784-0.194-1.182-0.288c-2.203-0.52-4.21-0.964-6.182-1.367l-0.286-0.054c-1.79-0.363-3.7-0.719-5.847-1.091
				c-0.457-0.079-0.915-0.154-1.371-0.229l-0.42-0.069c-1.555-0.254-3.119-0.493-4.707-0.717l-0.611-0.085
				c-0.375-0.054-0.75-0.107-1.129-0.157c-2.322-0.306-4.389-0.551-6.276-0.742l-0.235-0.023c-1.917-0.192-3.933-0.361-6.154-0.517
				c-0.448-0.032-0.898-0.06-1.347-0.087l-0.543-0.032c-1.579-0.098-3.164-0.178-4.747-0.24l-0.396-0.016
				c-0.498-0.019-0.996-0.04-1.504-0.057c-4.888-0.144-8.013-0.147-12.93,0.001c-0.499,0.016-0.997,0.036-1.495,0.056l-0.39,0.016
				c-1.59,0.063-3.173,0.142-4.761,0.24l-0.535,0.032c-0.45,0.027-0.899,0.055-1.339,0.086c-2.196,0.155-4.183,0.322-6.113,0.515
				c-0.069,0.005-0.188,0.016-0.238,0.021c-1.933,0.196-4,0.44-6.324,0.746c-0.376,0.051-0.751,0.103-1.126,0.157l-0.634,0.088
				c-1.566,0.221-3.129,0.459-4.689,0.715l-0.417,0.068c-0.457,0.074-0.915,0.15-1.381,0.231c-2.136,0.37-4.046,0.725-5.886,1.097
				l-0.285,0.056c-1.923,0.392-3.93,0.835-6.14,1.357c-0.392,0.093-0.784,0.19-1.176,0.287l-0.452,0.111
				c-1.533,0.374-3.059,0.765-4.581,1.174l-0.342,0.092c-0.465,0.124-0.928,0.248-1.379,0.375c-1.956,0.543-3.752,1.067-5.557,1.621
				l-0.4,0.119c-1.863,0.578-3.794,1.21-5.924,1.941l-1.507,0.53c-1.48,0.522-2.953,1.057-4.422,1.611l-0.233,0.088
				c-0.473,0.179-0.945,0.357-1.415,0.539c-1.752,0.678-3.473,1.369-5.14,2.066l-0.568,0.232c-1.802,0.76-3.645,1.572-5.644,2.484
				l-1.411,0.659c-1.414,0.66-2.821,1.332-4.205,2.017c-0.534,0.263-1.066,0.526-1.602,0.795c-1.579,0.796-3.147,1.61-4.705,2.447
				l-0.717,0.379c-1.711,0.926-3.5,1.932-5.351,3.003c-0.13,0.071-0.261,0.146-0.389,0.22c-0.115,0.068-0.231,0.139-0.342,0.212
				c-9.788,5.73-19.171,12.301-27.896,19.531c-0.085,0.066-0.169,0.133-0.252,0.203c-0.214,0.178-0.426,0.359-0.636,0.541
				l-0.369,0.315c-0.953,0.803-1.903,1.608-2.846,2.433c-0.333,0.291-0.662,0.583-0.992,0.876l-0.465,0.414
				c-0.852,0.758-1.699,1.519-2.529,2.281c-0.434,0.399-0.867,0.802-1.298,1.205l-0.234,0.219c-0.804,0.756-1.605,1.514-2.39,2.274
				c-0.508,0.489-1.013,0.983-1.518,1.481c-0.786,0.776-1.564,1.559-2.337,2.346l-0.127,0.129c-0.442,0.451-0.884,0.901-1.317,1.351
				c-0.792,0.822-1.575,1.655-2.353,2.489l-0.345,0.37c-0.33,0.351-0.658,0.703-0.988,1.064c-0.846,0.926-1.68,1.864-2.503,2.796
				l-0.348,0.391c-0.244,0.272-0.486,0.543-0.716,0.808c-2.349,2.702-4.652,5.493-6.852,8.3c-0.199,0.255-0.396,0.514-0.593,0.772
				l-0.361,0.472c-0.771,1.001-1.54,2.004-2.293,3.019c-0.28,0.377-0.556,0.757-0.832,1.138l-0.332,0.457
				c-0.667,0.917-1.332,1.836-1.985,2.763c-0.407,0.579-0.81,1.162-1.205,1.739c-0.621,0.901-1.236,1.807-1.838,2.709
				c-0.401,0.601-0.799,1.206-1.195,1.816c-0.593,0.91-1.178,1.826-1.813,2.835c-0.364,0.579-0.729,1.159-1.083,1.735
				c-0.586,0.952-1.16,1.91-1.726,2.863l-0.196,0.33c-0.285,0.476-0.568,0.955-0.856,1.449c-0.601,1.037-1.189,2.085-1.771,3.129
				l-0.295,0.526c-0.197,0.348-0.392,0.696-0.583,1.046c-0.723,1.324-1.427,2.657-2.12,3.993l-0.411,0.778
				c-0.829,1.616-1.636,3.244-2.426,4.888c-0.114,0.237-0.224,0.475-0.335,0.715l-0.205,0.442c-0.59,1.245-1.173,2.496-1.734,3.748
				c-0.176,0.391-0.346,0.785-0.517,1.178l-0.248,0.572c-0.473,1.081-0.944,2.164-1.401,3.256c-0.239,0.576-0.473,1.153-0.707,1.73
				l-0.083,0.205c-0.424,1.041-0.84,2.085-1.244,3.129c-0.261,0.674-0.517,1.352-0.776,2.038c-0.389,1.039-0.771,2.08-1.141,3.117
				c-0.247,0.689-0.489,1.376-0.727,2.063c-0.37,1.068-0.728,2.143-1.08,3.222l-0.147,0.447c-0.17,0.517-0.339,1.035-0.504,1.554
				c-0.36,1.14-0.704,2.287-1.046,3.434l-0.169,0.563c-0.126,0.424-0.253,0.845-0.378,1.277c-0.066,0.231-0.125,0.461-0.19,0.693
				H23.563C10.571,198.784,0,210.524,0,224.952v61.265c0,14.43,10.571,26.168,23.563,26.168h29.628
				c5.137,18.423,12.794,36.118,22.829,52.565c2.325,3.813,7.304,5.014,11.112,2.69c3.811-2.325,5.015-7.301,2.69-11.112
				c-11.457-18.776-19.551-39.319-24.038-60.721c-0.099-0.474-0.188-0.951-0.282-1.425c-0.315-1.558-0.614-3.117-0.89-4.683
				c-0.119-0.677-0.227-1.355-0.34-2.032c-0.226-1.371-0.441-2.743-0.638-4.12c-0.111-0.777-0.217-1.554-0.318-2.334
				c-0.169-1.292-0.323-2.588-0.467-3.886c-0.091-0.819-0.18-1.638-0.26-2.46c-0.126-1.291-0.233-2.586-0.333-3.883
				c-0.063-0.805-0.13-1.609-0.182-2.416c-0.091-1.4-0.155-2.804-0.217-4.208c-0.03-0.692-0.071-1.383-0.094-2.076
				c-0.068-2.092-0.108-4.189-0.108-6.287c0-1.864,0.032-3.726,0.085-5.588c0.006-0.184,0.013-0.368,0.021-0.552l0.028-0.695
				c0.011-0.328,0.029-0.654,0.041-0.982c0.046-1.152,0.092-2.303,0.158-3.454c0.012-0.19,0.023-0.379,0.036-0.569l0.043-0.669
				c0.015-0.241,0.036-0.48,0.051-0.721c0.088-1.295,0.183-2.587,0.297-3.879c0.024-0.263,0.046-0.525,0.07-0.789
				c0.034-0.375,0.075-0.748,0.111-1.122c0.141-1.435,0.29-2.867,0.462-4.298c0.057-0.475,0.122-0.951,0.182-1.426
				c0.188-1.467,0.388-2.933,0.609-4.395c0.067-0.44,0.137-0.878,0.207-1.317c0.236-1.489,0.488-2.975,0.758-4.458
				c0.081-0.435,0.16-0.871,0.244-1.307c0.285-1.499,0.586-2.994,0.905-4.485c0.081-0.377,0.16-0.755,0.244-1.132
				c0.35-1.59,0.723-3.173,1.114-4.752c0.162-0.654,0.309-1.303,0.479-1.957l0.316-1.167c0.332-1.249,0.67-2.497,1.024-3.733
				c0.105-0.361,0.212-0.72,0.32-1.08l0.184-0.612c0.315-1.062,0.634-2.121,0.966-3.173c0.147-0.462,0.297-0.924,0.449-1.385
				l0.151-0.461c0.324-0.99,0.652-1.978,0.995-2.966c0.218-0.632,0.44-1.261,0.668-1.897c0.344-0.966,0.696-1.926,1.053-2.876
				c0.236-0.626,0.472-1.254,0.716-1.881c0.374-0.967,0.758-1.928,1.149-2.894l0.087-0.212c0.212-0.527,0.426-1.055,0.645-1.577
				c0.419-1.003,0.852-1.999,1.286-2.99l0.274-0.63c0.142-0.328,0.285-0.654,0.433-0.987c0.521-1.162,1.06-2.315,1.599-3.455
				l0.502-1.077c0.728-1.513,1.471-3.016,2.238-4.51l0.378-0.715c0.64-1.234,1.289-2.463,1.957-3.686
				c0.155-0.287,0.316-0.569,0.474-0.853l0.336-0.598c0.538-0.968,1.079-1.933,1.627-2.877c0.252-0.434,0.511-0.866,0.768-1.298
				l0.206-0.346c0.524-0.884,1.051-1.766,1.594-2.645c0.331-0.539,0.667-1.075,1.047-1.678c0.537-0.852,1.078-1.699,1.624-2.537
				c0.363-0.556,0.728-1.112,1.102-1.674c0.56-0.841,1.127-1.675,1.705-2.514c0.368-0.534,0.734-1.066,1.107-1.596
				c0.605-0.858,1.219-1.707,1.835-2.552l0.351-0.485c0.24-0.331,0.479-0.66,0.722-0.988c0.696-0.938,1.408-1.865,2.115-2.782
				l0.884-1.153c2.026-2.586,4.153-5.163,6.329-7.667c0.183-0.211,0.371-0.42,0.558-0.628l0.412-0.464
				c0.769-0.871,1.539-1.738,2.318-2.589c0.285-0.312,0.572-0.619,0.861-0.926l0.363-0.389c0.719-0.77,1.44-1.539,2.176-2.302
				c0.399-0.415,0.803-0.826,1.206-1.235l0.129-0.132c0.715-0.729,1.435-1.453,2.16-2.169c0.461-0.455,0.923-0.907,1.397-1.365
				c0.734-0.709,1.473-1.412,2.206-2.099l0.225-0.21c0.39-0.365,0.78-0.731,1.185-1.101c0.777-0.715,1.563-1.418,2.339-2.11
				l0.48-0.427c0.29-0.259,0.581-0.518,0.871-0.771c0.868-0.758,1.745-1.503,2.618-2.237l0.79-0.676
				c0.067-0.052,0.13-0.103,0.195-0.157c8.169-6.789,16.968-12.948,26.151-18.307c0.095-0.055,0.188-0.112,0.28-0.17l0.203-0.115
				c1.684-0.976,3.335-1.904,4.919-2.762l0.647-0.342c1.437-0.77,2.883-1.521,4.334-2.253c0.486-0.246,0.974-0.487,1.478-0.735
				c1.29-0.637,2.589-1.259,3.879-1.86l1.316-0.614c1.844-0.843,3.544-1.592,5.202-2.291l0.544-0.222
				c1.561-0.652,3.132-1.282,4.716-1.895c0.429-0.166,0.858-0.328,1.287-0.489l0.236-0.089c1.355-0.512,2.717-1.008,4.067-1.483
				l1.411-0.497c1.96-0.673,3.745-1.257,5.454-1.787c0.004-0.001,0.103-0.03,0.107-0.031l0.324-0.096
				c1.594-0.49,3.249-0.972,5.07-1.479c0.407-0.113,0.817-0.223,1.226-0.333l0.35-0.094c1.401-0.376,2.808-0.736,4.229-1.083
				l1.504-0.368c2.046-0.482,3.899-0.891,5.699-1.258l0.269-0.053c1.64-0.332,3.402-0.66,5.377-1.002l1.667-0.276
				c1.438-0.236,2.881-0.455,4.307-0.655l1.641-0.23c2.12-0.28,4-0.502,5.786-0.685c0.068-0.006,0.174-0.016,0.219-0.02
				c1.758-0.176,3.619-0.333,5.699-0.48c0.389-0.027,0.779-0.051,1.17-0.074l0.56-0.034c1.459-0.089,2.923-0.163,4.396-0.221
				l0.41-0.017c0.446-0.018,0.893-0.036,1.331-0.05c4.556-0.139,7.391-0.138,11.94-0.001c0.448,0.015,0.895,0.032,1.341,0.051
				l0.415,0.017c1.467,0.058,2.932,0.131,4.382,0.221l0.569,0.034c0.39,0.024,0.78,0.047,1.178,0.076
				c2.072,0.147,3.933,0.303,5.649,0.474l0.21,0.019c1.769,0.179,3.678,0.404,5.834,0.69l1.621,0.226
				c1.449,0.204,2.892,0.424,4.327,0.658l1.661,0.275c1.984,0.344,3.746,0.673,5.42,1.011l0.271,0.051
				c1.766,0.361,3.617,0.771,5.658,1.251l1.518,0.372c1.413,0.344,2.819,0.704,4.217,1.079l0.354,0.095
				c0.409,0.11,0.818,0.219,1.237,0.336c1.811,0.503,3.465,0.985,5.094,1.486l0.396,0.116c1.71,0.53,3.493,1.115,5.436,1.781
				l1.411,0.497c1.369,0.482,2.73,0.978,4.084,1.49l0.237,0.089c0.429,0.162,0.859,0.323,1.288,0.489
				c1.582,0.612,3.154,1.242,4.688,1.883l0.575,0.236c1.655,0.696,3.354,1.445,5.189,2.284l1.31,0.61
				c1.305,0.609,2.604,1.232,3.908,1.875c0.489,0.24,0.978,0.482,1.459,0.724c1.457,0.735,2.903,1.486,4.336,2.255l0.662,0.349
				c1.573,0.852,3.224,1.779,4.922,2.763l0.183,0.104c0.094,0.06,0.188,0.117,0.285,0.174c9.183,5.36,17.981,11.519,26.151,18.307
				c0.055,0.045,0.114,0.094,0.178,0.143l0.799,0.682c0.881,0.742,1.759,1.486,2.621,2.239c0.294,0.257,0.585,0.516,0.876,0.776
				l0.468,0.416c0.788,0.703,1.575,1.408,2.362,2.132c0.393,0.36,0.784,0.725,1.174,1.091l0.212,0.199
				c0.745,0.698,1.485,1.401,2.227,2.119c0.466,0.449,0.927,0.901,1.387,1.355c0.727,0.717,1.447,1.441,2.162,2.171l0.128,0.13
				c0.403,0.411,0.807,0.821,1.211,1.24c0.732,0.759,1.453,1.528,2.171,2.299l0.363,0.388c0.289,0.307,0.577,0.614,0.857,0.921
				c0.783,0.857,1.553,1.725,2.328,2.602l0.405,0.456c0.188,0.208,0.375,0.417,0.566,0.639c2.169,2.493,4.294,5.07,6.316,7.652
				l0.882,1.15c0.714,0.925,1.424,1.853,2.122,2.792c0.242,0.328,0.481,0.656,0.721,0.987l0.35,0.483
				c0.617,0.847,1.232,1.697,1.836,2.555c0.374,0.53,0.739,1.063,1.112,1.604c0.572,0.831,1.14,1.665,1.705,2.515
				c0.37,0.553,0.734,1.109,1.095,1.662c0.549,0.842,1.09,1.689,1.67,2.61c0.335,0.535,0.673,1.07,1.008,1.616
				c0.538,0.874,1.065,1.755,1.595,2.648l0.201,0.337c0.257,0.432,0.515,0.863,0.76,1.285c0.555,0.957,1.096,1.922,1.636,2.892
				l0.335,0.596c0.158,0.283,0.319,0.566,0.476,0.856c0.666,1.22,1.316,2.448,1.957,3.69l0.377,0.712
				c0.765,1.49,1.509,2.991,2.234,4.501l0.5,1.07c0.543,1.15,1.082,2.303,1.606,3.473c0.147,0.326,0.289,0.652,0.431,0.98
				l0.273,0.625c0.435,0.995,0.869,1.992,1.285,2.991c0.22,0.525,0.433,1.052,0.647,1.58l0.089,0.219
				c0.389,0.959,0.774,1.92,1.149,2.892c0.242,0.623,0.477,1.25,0.71,1.868c0.36,0.959,0.711,1.92,1.058,2.893
				c0.225,0.627,0.447,1.257,0.667,1.895c0.34,0.982,0.668,1.97,0.992,2.957l0.152,0.465c0.152,0.461,0.303,0.923,0.448,1.384
				c0.333,1.054,0.651,2.113,0.967,3.177l0.183,0.61c0.108,0.36,0.216,0.719,0.318,1.074c0.356,1.241,0.695,2.49,1.029,3.751
				l0.314,1.158c0.107,0.411,0.207,0.821,0.31,1.233c0.011,0.047,0.015,0.097,0.028,0.144c0.468,1.867,0.905,3.742,1.317,5.623
				c0.03,0.138,0.059,0.278,0.089,0.416c0.379,1.754,0.735,3.513,1.066,5.277c0.038,0.198,0.073,0.396,0.111,0.594
				c0.315,1.708,0.605,3.42,0.874,5.137c0.04,0.249,0.079,0.498,0.117,0.747c0.257,1.677,0.487,3.359,0.7,5.043
				c0.034,0.276,0.072,0.551,0.106,0.827c0.196,1.616,0.366,3.236,0.523,4.857c0.024,0.251,0.052,0.5,0.075,0.753
				c0.017,0.189,0.033,0.376,0.05,0.565c0.132,1.467,0.24,2.936,0.338,4.408c0.009,0.134,0.019,0.268,0.028,0.401l0.044,0.679
				c0.01,0.155,0.019,0.314,0.029,0.47c0.081,1.379,0.139,2.758,0.191,4.139c0.004,0.135,0.013,0.267,0.017,0.401l0.027,0.69
				c0.006,0.165,0.013,0.333,0.018,0.499c0.055,1.879,0.086,3.759,0.086,5.64c0,1.848-0.031,3.694-0.083,5.539
				c-0.013,0.461-0.037,0.922-0.053,1.383c-0.05,1.391-0.109,2.78-0.189,4.168c-0.03,0.536-0.067,1.07-0.102,1.606
				c-0.087,1.34-0.188,2.679-0.303,4.016c-0.044,0.515-0.089,1.03-0.138,1.545c-0.134,1.415-0.285,2.828-0.448,4.239
				c-0.049,0.417-0.093,0.835-0.143,1.251c-0.218,1.768-0.456,3.532-0.721,5.292c-0.008,0.053-0.014,0.107-0.023,0.16
				c-0.273,1.797-0.576,3.587-0.898,5.374c-0.112,0.619-0.237,1.234-0.356,1.851c-0.208,1.09-0.421,2.178-0.648,3.264
				c-0.185,0.887-0.382,1.771-0.579,2.653c-0.17,0.761-0.345,1.521-0.525,2.28c-20.197,85.14-96.856,148.671-188.087,148.671
				c-58.849,0-113.778-26.333-150.705-72.245c-2.8-3.479-7.888-4.032-11.366-1.234c-3.479,2.799-4.031,7.887-1.234,11.366
				c40.013,49.748,99.534,78.281,163.309,78.281c95.968,0,177.059-64.878,201.742-153.075h31.743
				c12.993,0,23.563-11.739,23.563-26.168V224.95C512,210.524,501.429,198.784,488.437,198.784z M49.426,215.443l-0.105,0.553
				c-0.242,1.249-0.479,2.499-0.698,3.758c-0.086,0.494-0.167,0.991-0.248,1.487l-0.091,0.553c-0.138,0.841-0.267,1.685-0.397,2.529
				c-0.047,0.31-0.1,0.621-0.146,0.931c-0.002,0.015-0.005,0.029-0.008,0.044c-0.107,0.722-0.205,1.447-0.303,2.17
				c-0.065,0.47-0.121,0.943-0.182,1.415c-0.081,0.625-0.165,1.249-0.24,1.874c-0.006,0.054-0.014,0.108-0.02,0.162
				c-0.087,0.735-0.171,1.468-0.252,2.209c-0.034,0.317-0.061,0.634-0.094,0.951c-0.083,0.794-0.163,1.588-0.236,2.383
				c-0.005,0.053-0.011,0.106-0.016,0.158c-0.068,0.723-0.134,1.445-0.194,2.177c-0.016,0.195-0.027,0.394-0.042,0.59
				c-0.073,0.925-0.137,1.85-0.197,2.776c-0.006,0.101-0.015,0.201-0.022,0.302l-0.041,0.626c-0.03,0.468-0.061,0.935-0.086,1.395
				c-0.006,0.114-0.009,0.229-0.015,0.343c-0.065,1.213-0.111,2.426-0.154,3.641c-0.001,0.046-0.004,0.094-0.005,0.14l-0.023,0.567
				c-0.015,0.344-0.028,0.69-0.038,1.032c-0.002,0.065-0.002,0.123-0.004,0.188c-0.011,0.4-0.017,0.801-0.025,1.201
				c-0.032,1.52-0.054,2.987-0.054,4.405c0,1.511,0.023,3.019,0.054,4.527c0.009,0.414,0.02,0.828,0.031,1.242
				c0.033,1.23,0.078,2.459,0.133,3.686c0.014,0.309,0.025,0.62,0.04,0.93c0.074,1.502,0.165,3.002,0.271,4.5
				c0.023,0.329,0.051,0.656,0.075,0.984c0.092,1.212,0.194,2.421,0.306,3.629c0.038,0.41,0.075,0.82,0.116,1.23
				c0.147,1.48,0.303,2.958,0.481,4.433c0.02,0.174,0.045,0.346,0.067,0.52c0.159,1.296,0.332,2.589,0.515,3.882
				c0.072,0.513,0.149,1.025,0.225,1.537c0.154,1.028,0.316,2.055,0.485,3.08c0.079,0.481,0.153,0.961,0.236,1.441
				c0.227,1.325,0.47,2.647,0.722,3.968c0.039,0.206,0.072,0.417,0.113,0.627H23.563c-4.009,0-7.394-4.579-7.394-10v-61.265
				c0-5.421,3.387-10,7.394-10H49.52C49.488,215.117,49.456,215.28,49.426,215.443z M488.437,296.217h-27.899
				c0.105-0.54,0.195-1.082,0.295-1.623c0.158-0.848,0.316-1.696,0.465-2.547c0.129-0.747,0.251-1.495,0.372-2.242
				c0.161-0.985,0.319-1.97,0.466-2.96c0.094-0.636,0.18-1.273,0.268-1.91c0.15-1.08,0.297-2.16,0.431-3.246
				c0.071-0.577,0.133-1.154,0.198-1.731c0.129-1.131,0.258-2.261,0.369-3.398c0.056-0.568,0.101-1.137,0.152-1.706
				c0.101-1.134,0.204-2.268,0.287-3.406c0.046-0.627,0.079-1.255,0.12-1.883c0.069-1.08,0.142-2.158,0.195-3.242
				c0.038-0.765,0.058-1.533,0.087-2.299c0.036-0.952,0.08-1.901,0.102-2.856c0.029-1.202,0.037-2.405,0.046-3.608
				c0.004-0.521,0.019-1.038,0.019-1.56c0-1.462-0.023-2.974-0.057-4.542c-0.008-0.326-0.012-0.651-0.02-0.978
				c-0.002-0.092-0.003-0.177-0.005-0.269c-0.01-0.346-0.024-0.692-0.038-1.036l-0.022-0.562c-0.006-0.172-0.016-0.342-0.022-0.514
				c-0.04-1.066-0.08-2.133-0.137-3.198c-0.006-0.136-0.01-0.274-0.017-0.409c-0.025-0.468-0.056-0.936-0.086-1.403l-0.042-0.636
				c-0.01-0.155-0.023-0.31-0.033-0.466c-0.054-0.808-0.109-1.617-0.172-2.424c-0.019-0.259-0.035-0.516-0.055-0.774
				c-0.06-0.725-0.126-1.448-0.193-2.163c-0.012-0.128-0.026-0.255-0.038-0.384c-0.06-0.643-0.125-1.287-0.192-1.93
				c-0.041-0.397-0.075-0.793-0.119-1.19c-0.08-0.736-0.164-1.469-0.251-2.205c-0.014-0.117-0.031-0.234-0.045-0.351
				c-0.045-0.376-0.097-0.751-0.144-1.128c-0.083-0.656-0.164-1.314-0.252-1.968c-0.099-0.725-0.198-1.45-0.304-2.172
				c-0.172-1.172-0.359-2.34-0.551-3.509l-0.089-0.55c-0.081-0.497-0.162-0.994-0.248-1.491c-0.22-1.256-0.457-2.505-0.696-3.747
				l-0.107-0.562c-0.031-0.163-0.064-0.327-0.095-0.489h28.058c4.009,0,7.394,4.579,7.394,10v61.267h0
				C495.832,291.638,492.445,296.217,488.437,296.217z"/>
			<path d="M142.424,242.715l80.365,63.114c1.48,1.163,3.24,1.727,4.987,1.727c2.396,0,4.769-1.06,6.363-3.09
				c2.758-3.512,2.146-8.594-1.366-11.351L152.409,230c-3.507-2.758-8.592-2.148-11.35,1.364
				C138.3,234.875,138.913,239.958,142.424,242.715z"/>
			<path d="M162.958,217.94l78.615,61.74c1.48,1.163,3.24,1.727,4.987,1.727c2.396,0,4.769-1.06,6.363-3.091
				c2.758-3.511,2.146-8.593-1.366-11.35l-78.616-61.74c-3.509-2.757-8.592-2.147-11.35,1.366
				C158.835,210.099,159.447,215.181,162.958,217.94z"/>
			<path d="M200.88,206.819L241,238.326c1.48,1.163,3.24,1.727,4.987,1.727c2.396,0,4.769-1.06,6.363-3.091
				c2.758-3.511,2.146-8.593-1.366-11.35l-40.12-31.507c-3.509-2.757-8.593-2.147-11.35,1.366
				C196.757,198.979,197.369,204.062,200.88,206.819z"/>
			<path d="M190.034,318.814c2.396,0,4.769-1.061,6.363-3.091c2.757-3.512,2.145-8.593-1.366-11.351l-46.2-36.281
				c-3.509-2.757-8.592-2.145-11.35,1.366c-2.758,3.512-2.146,8.593,1.366,11.35l46.2,36.281
				C186.526,318.251,188.287,318.814,190.034,318.814z"/>
			<path d="M334.706,313.464c11.859,0,21.507-9.648,21.507-21.507c0-11.858-9.648-21.507-21.507-21.507
				c-11.859,0-21.507,9.648-21.507,21.507S322.847,313.464,334.706,313.464z M334.706,286.619c2.945,0,5.339,2.395,5.339,5.339
				c0,2.944-2.395,5.339-5.339,5.339c-2.944,0-5.339-2.395-5.339-5.339S331.762,286.619,334.706,286.619z"/>
		</g>
	</g>
</g>
</svg>